<?xml version="1.0" encoding="UTF-8" standalone="no"?>
<svg
   width="2658.8809"
   height="2658.8809"
   viewBox="0 0 2658.8809 2658.8809"
   version="1.1"
   style="clip-rule:evenodd;fill-rule:evenodd;stroke-linejoin:round;stroke-miterlimit:2"
   id="svg4"
   sodipodi:docname="wiki-archive.svg"
   inkscape:version="1.4.4 (dcaf3e7d9e, 2026-05-05)"
   xmlns:inkscape="http://www.inkscape.org/namespaces/inkscape"
   xmlns:sodipodi="http://sodipodi.sourceforge.net/DTD/sodipodi-0.dtd"
   xmlns="http://www.w3.org/2000/svg"
   xmlns:svg="http://www.w3.org/2000/svg">
  <defs
     id="defs4" />
  <sodipodi:namedview
     id="namedview4"
     pagecolor="#ffffff"
     bordercolor="#000000"
     borderopacity="0.25"
     inkscape:showpageshadow="2"
     inkscape:pageopacity="0.0"
     inkscape:pagecheckerboard="0"
     inkscape:deskcolor="#d1d1d1"
     inkscape:zoom="0.16012599"
     inkscape:cx="830.59598"
     inkscape:cy="1220.9136"
     inkscape:window-width="1853"
     inkscape:window-height="1011"
     inkscape:window-x="0"
     inkscape:window-y="0"
     inkscape:window-maximized="1"
     inkscape:current-layer="svg4" />
  <circle
     style="fill:#e95420;fill-opacity:1;stroke:#000000;stroke-width:9.31653;stroke-opacity:0"
     id="path4"
     cx="1329.4404"
     cy="1329.4404"
     r="1324.7821" />
  <g
     id="g4"
     transform="translate(-405.44575,-489.6131)">
    <g
       transform="matrix(0.89838326,0,0,1,294.05854,-15.911863)"
       id="g1"
       style="fill:#ffffff">
      <g
         id="bottom"
         style="fill:#ffffff">
        <path
           d="M 2427.83,2578.26 H 977.911 c -83.624,0 -198.42,-63.02 -198.42,-261.45 0,-183.55 114.794,-261.49 198.42,-255.15 H 2427.83 v 57.62 H 1032.29 c -80.488,-4.93 -190.978,12.14 -190.978,198.19 0,186.06 110.49,203.1 190.978,203.1 h 1395.54 z m 0,-98.96 H 1031.4 c -64.381,0 -146.696,-15.63 -146.696,-163.28 0,-131.31 82.315,-154.87 146.696,-154.87 h 1396.43 z"
           style="fill:#ffffff;fill-rule:nonzero"
           id="path1" />
      </g>
    </g>
    <g
       transform="matrix(0.89838326,0,0,1,294.31021,-474.50386)"
       id="g1-6"
       style="clip-rule:evenodd;fill:#ffffff;fill-rule:evenodd;stroke-linejoin:round;stroke-miterlimit:2">
      <g
         id="bottom-7"
         style="fill:#ffffff">
        <path
           d="M 2427.83,2578.26 H 977.911 c -83.624,0 -198.42,-63.02 -198.42,-261.45 0,-183.55 114.794,-261.49 198.42,-255.15 H 2427.83 v 57.62 H 1032.29 c -80.488,-4.93 -190.978,12.14 -190.978,198.19 0,186.06 110.49,203.1 190.978,203.1 h 1395.54 z m 0,-98.96 H 1031.4 c -64.381,0 -146.696,-15.63 -146.696,-163.28 0,-131.31 82.315,-154.87 146.696,-154.87 h 1396.43 z"
           style="fill:#ffffff;fill-rule:nonzero"
           id="path1-5" />
      </g>
    </g>
    <g
       transform="matrix(0.89838326,0,0,1,294.10109,-933.32244)"
       id="g1-6-0"
       style="clip-rule:evenodd;fill:#ffffff;fill-rule:evenodd;stroke-linejoin:round;stroke-miterlimit:2">
      <g
         id="bottom-7-9"
         style="fill:#ffffff">
        <path
           d="M 2427.83,2578.26 H 977.911 c -83.624,0 -198.42,-63.02 -198.42,-261.45 0,-183.55 114.794,-261.49 198.42,-255.15 H 2427.83 v 57.62 H 1032.29 c -80.488,-4.93 -190.978,12.14 -190.978,198.19 0,186.06 110.49,203.1 190.978,203.1 h 1395.54 z m 0,-98.96 H 1031.4 c -64.381,0 -146.696,-15.63 -146.696,-163.28 0,-131.31 82.315,-154.87 146.696,-154.87 h 1396.43 z"
           style="fill:#ffffff;fill-rule:nonzero"
           id="path1-5-3" />
      </g>
    </g>
  </g>
</svg>
